<svg width="52" height="39" viewBox="0 0 52 39" fill="none" xmlns="http://www.w3.org/2000/svg">
<path d="M35.72 16.24C37.91 15.78 43.4 14.44 47.55 11.63C50.15 9.87 51.45 8.02 51.55 5.98C51.5677 5.74307 51.4951 5.50822 51.3466 5.3227C51.1982 5.13717 50.985 5.01473 50.75 4.98C49.2574 4.83829 47.7572 5.15578 46.45 5.89C42.24 7.89 38.8 10.99 35.45 14.04C37.2459 10.5324 38.094 6.61634 37.91 2.68C37.9089 2.32418 37.8263 1.97334 37.6685 1.65439C37.5108 1.33544 37.2821 1.05686 37 0.840002C36.7259 0.682335 36.4194 0.589541 36.1039 0.56874C35.7884 0.547939 35.4724 0.599683 35.18 0.720002C33.35 1.35 32.44 3.13 31.8 4.79C29.9591 9.85501 28.4951 15.0492 27.42 20.33C27.3026 20.3508 27.1907 20.3951 27.091 20.4605C26.9913 20.5258 26.9059 20.6107 26.84 20.71C24.7494 21.7941 22.555 22.6652 20.29 23.31C20.9344 22.7404 21.5085 22.0958 22 21.39C23.3107 19.3842 24.1737 17.1194 24.53 14.75C25.035 12.5391 24.9869 10.2378 24.39 8.05C24.3009 7.62364 24.0802 7.23601 23.7591 6.94176C23.4379 6.64752 23.0325 6.46152 22.6 6.41C22.3217 6.4094 22.0463 6.46689 21.7914 6.57882C21.5366 6.69075 21.3079 6.85464 21.12 7.06C18.4 9.54 17.2 13.15 16.47 16.06C16.28 16.77 16.11 17.49 15.95 18.21C15.5085 20.4332 14.8383 22.6047 13.95 24.69C9.6983 25.2599 5.40862 25.4973 1.12 25.4C0.991783 25.3888 0.862644 25.4046 0.740925 25.4464C0.619206 25.4883 0.507615 25.5552 0.413368 25.6428C0.319121 25.7305 0.244316 25.8369 0.193783 25.9553C0.143249 26.0737 0.118111 26.2013 0.119999 26.33C0.118678 26.4534 0.14169 26.5759 0.187713 26.6905C0.233737 26.805 0.301873 26.9094 0.388233 26.9976C0.474593 27.0858 0.577482 27.1562 0.691028 27.2046C0.804575 27.2531 0.926554 27.2787 1.05 27.28H2.55C6.56412 27.317 10.5754 27.0529 14.55 26.49C15.35 26.36 16.16 26.22 16.97 26.06L18.14 27.3C21.72 31.12 25.43 35.07 30.02 37.84C30.3708 38.0744 30.7786 38.2092 31.2 38.23C31.4833 38.2326 31.7613 38.1527 32 38C32.3073 37.8142 32.5487 37.5368 32.6904 37.2068C32.832 36.8768 32.8669 36.5108 32.79 36.16C32.444 33.3674 31.0324 30.8164 28.85 29.04C26.7887 27.3742 24.49 26.026 22.03 25.04L21.58 24.86C23.7088 24.2005 25.7738 23.3504 27.75 22.32C31.016 23.7581 34.4546 24.7665 37.98 25.32C39.6277 25.6446 41.3009 25.822 42.98 25.85C44.7521 25.8858 46.5134 25.5661 48.16 24.91C48.3132 24.8387 48.4458 24.7298 48.5454 24.5934C48.6451 24.457 48.7086 24.2976 48.73 24.13C48.7403 23.9622 48.7081 23.7945 48.6365 23.6425C48.5648 23.4904 48.456 23.3589 48.32 23.26C43.4889 20.0237 37.6113 18.7374 31.87 19.66C33.2606 18.6468 34.5499 17.5014 35.72 16.24ZM47.22 7.64C47.9173 7.27589 48.6658 7.01964 49.44 6.88C48.7977 8.23055 47.7486 9.34607 46.44 10.07C44.0953 11.5676 41.5453 12.7163 38.87 13.48C41.3684 11.1547 44.1788 9.18915 47.22 7.64ZM33.52 5.48C34.01 4.22 34.66 2.88 35.76 2.48C35.8285 2.46242 35.8955 2.439 35.96 2.41C36.0023 2.54998 36.0291 2.69418 36.04 2.84C36.51 7.74 33.91 14.65 30.11 18.65C29.95 18.77 29.79 18.89 29.62 19C30.5972 14.4064 31.9005 9.8883 33.52 5.48ZM17.8 18.61C17.96 17.91 18.13 17.2 18.31 16.5C18.98 13.88 20.05 10.59 22.4 8.5L22.5 8.42C22.5512 8.50462 22.5915 8.59533 22.62 8.69C23.1388 10.575 23.1664 12.5614 22.7 14.46C22.3902 16.5643 21.6295 18.5768 20.47 20.36C19.5397 21.7782 18.1533 22.8365 16.54 23.36C17.06 21.74 17.43 20.16 17.8 18.61ZM27.57 30.49C29.3066 31.8969 30.4723 33.8872 30.85 36.09C26.66 33.51 23.16 29.81 19.78 26.21C20.26 26.38 20.78 26.58 21.23 26.8C23.5221 27.6934 25.6611 28.9383 27.57 30.49ZM45.49 23.81C43.0859 24.1483 40.6407 24.0535 38.27 23.53C35.8933 23.1226 33.5526 22.5274 31.27 21.75C36.1059 20.7823 41.1275 21.5098 45.49 23.81Z" fill="#5F8961"/>
</svg>
