<svg id="Layer_1" data-name="Layer 1" xmlns="http://www.w3.org/2000/svg" width="165.02" height="128.59" viewBox="0 0 165.02 128.59"><defs><style>.cls-1{font-size:49.74px;font-family:MADEGentle, MADE Gentle;}.cls-1,.cls-6,.cls-7{fill:#fff;}.cls-2{letter-spacing:0.02em;}.cls-3{letter-spacing:0.01em;}.cls-4{letter-spacing:-0.04em;}.cls-5{letter-spacing:0em;}.cls-7{font-size:15.98px;font-family:Sookie;letter-spacing:0.15em;}</style></defs><text class="cls-1" transform="translate(10.84 102.5)"><tspan class="cls-2">h</tspan><tspan class="cls-3" x="31.28" y="0">e</tspan><tspan x="56.35" y="0">n</tspan><tspan class="cls-4" x="86.64" y="0">y</tspan><tspan class="cls-5" x="112.26" y="0">a</tspan></text><rect class="cls-6" x="73.05" y="113.44" width="19.24" height="2.51"/><path class="cls-6" d="M92.72,19.24c2.19-.46,7.68-1.8,11.83-4.61,2.6-1.76,3.9-3.61,4-5.65a.94.94,0,0,0-.8-1,7.36,7.36,0,0,0-4.3.91c-4.21,2-7.65,5.1-11,8.15A22.61,22.61,0,0,0,94.91,5.68,2.33,2.33,0,0,0,94,3.84a2.07,2.07,0,0,0-1.82-.12c-1.83.63-2.74,2.41-3.38,4.07a109.36,109.36,0,0,0-4.38,15.54.88.88,0,0,0-.58.38,35.11,35.11,0,0,1-6.55,2.6A10.8,10.8,0,0,0,79,24.39a16.67,16.67,0,0,0,2.53-6.64,13.79,13.79,0,0,0-.14-6.7,2.08,2.08,0,0,0-1.79-1.64,2,2,0,0,0-1.48.65c-2.72,2.48-3.92,6.09-4.65,9-.19.71-.36,1.43-.52,2.15a32.87,32.87,0,0,1-2,6.48,82.48,82.48,0,0,1-12.83.71.92.92,0,0,0-1,.93.94.94,0,0,0,.93.95h1.5a80.29,80.29,0,0,0,12-.79h0c.8-.13,1.61-.27,2.42-.43l1.17,1.24c3.58,3.82,7.29,7.77,11.88,10.54a2.33,2.33,0,0,0,1.18.39A1.46,1.46,0,0,0,89,41a1.72,1.72,0,0,0,.79-1.84,10.91,10.91,0,0,0-3.94-7.12,26.59,26.59,0,0,0-6.82-4l-.45-.18a37.08,37.08,0,0,0,6.17-2.54,41.27,41.27,0,0,0,10.23,3,28.31,28.31,0,0,0,5,.53,13.27,13.27,0,0,0,5.18-.94,1,1,0,0,0,.57-.78,1,1,0,0,0-.41-.87,23,23,0,0,0-16.45-3.6A26.69,26.69,0,0,0,92.72,19.24Zm11.5-8.6a7.78,7.78,0,0,1,2.22-.76,7.16,7.16,0,0,1-3,3.19,28.7,28.7,0,0,1-7.57,3.41A36.72,36.72,0,0,1,104.22,10.64ZM90.52,8.48c.49-1.26,1.14-2.6,2.24-3a1.24,1.24,0,0,0,.2-.07,2,2,0,0,1,.08.43c.47,4.9-2.13,11.81-5.93,15.81-.16.12-.32.24-.49.35A98.85,98.85,0,0,1,90.52,8.48ZM74.8,21.61c.16-.7.33-1.41.51-2.11.67-2.62,1.74-5.91,4.09-8l.1-.08a1.18,1.18,0,0,1,.12.27,11.45,11.45,0,0,1,.08,5.77,14.77,14.77,0,0,1-2.23,5.9,7.45,7.45,0,0,1-3.93,3C74.06,24.74,74.43,23.16,74.8,21.61Zm9.77,11.88a9.21,9.21,0,0,1,3.28,5.6c-4.19-2.58-7.69-6.28-11.07-9.88.48.17,1,.37,1.45.59A23.69,23.69,0,0,1,84.57,33.49Zm17.92-6.68a20.34,20.34,0,0,1-7.22-.28,45.62,45.62,0,0,1-7-1.78A21.46,21.46,0,0,1,102.49,26.81Z"/><rect class="cls-6" x="17.03" y="53.85" width="20.68" height="2.51"/><rect class="cls-6" x="124" y="53.85" width="20.68" height="2.51"/><text class="cls-7" transform="translate(48.15 60.43) scale(0.89 1)">emporium</text></svg>