<svg width="150" height="120" viewBox="0 0 150 120" fill="none" xmlns="http://www.w3.org/2000/svg">
<path d="M28.3518 96.1824V88.4727C28.3518 82.9516 24.9695 78.5744 18.2049 78.8231C16.066 78.8729 14.2257 79.7185 12.7832 81.0614C12.7832 81.0614 12.7832 68.1788 12.7832 67.9301C12.7832 65.0452 10.0475 65.1446 6.76465 66.3384C2.93467 67.7809 0.994812 69.0741 0.994812 70.9145C0.994812 70.9642 0.994812 70.9145 0.994812 71.014C0.994812 72.7051 2.68597 73.302 2.68597 75.6895V96.1824C2.68597 98.6197 0.994812 99.2165 0.994812 100.908C0.994812 101.007 0.994812 100.957 0.994812 101.007C0.994812 102.848 4.12843 103.345 7.75945 103.345C11.3407 103.345 14.4744 102.848 14.4744 101.007C14.4744 100.957 14.4744 101.007 14.4744 100.908C14.4744 99.2165 12.7832 98.6197 12.7832 96.1824V87.3784C12.8329 84.3443 14.0267 83.051 15.5189 83.051C17.3095 83.051 18.2546 84.2945 18.2546 87.6769V96.1824C18.2546 98.6197 16.5634 99.2165 16.5634 100.908C16.5634 101.007 16.5634 100.957 16.5634 101.007C16.5634 102.848 19.6971 103.345 23.2783 103.345C26.9094 103.345 30.043 102.848 30.043 101.007C30.043 100.957 30.043 101.007 30.043 100.908C30.043 99.2165 28.3518 98.6197 28.3518 96.1824Z" fill="white"/>
<path d="M53.7146 96.1327C50.382 97.3762 44.9106 96.9285 43.9655 91.9545H54.4607C56.7487 91.9545 57.7932 91.1089 57.4948 87.5774C57.0969 83.1505 53.0679 78.7237 46.2536 78.8231C39.3397 78.9226 34.2662 84.3443 34.2662 91.2581C34.2662 99.515 40.1355 103.544 46.9002 103.693C55.2068 103.942 58.5393 97.028 56.4503 95.685C55.7042 95.1876 54.9083 95.6353 53.7146 96.1327ZM46.9996 82.4542C49.8348 82.4542 49.8348 85.4883 49.6359 87.1297C49.5364 88.025 48.9893 88.3732 48.0442 88.3732C47.0494 88.3732 43.5179 88.3732 43.5179 88.3732C43.5179 84.593 44.8111 82.4542 46.9996 82.4542Z" fill="white"/>
<path d="M89.6719 96.1824V88.4727C89.6719 82.9516 86.4388 78.5247 79.6742 78.8231C77.038 78.9226 74.6007 80.4148 73.4567 82.7029C73.4567 82.1557 73.4567 81.6583 73.4567 81.2107C73.4567 78.3755 71.3676 78.4252 68.0847 79.619C64.2548 81.0614 62.3149 82.3547 62.3149 84.1951C62.3149 84.2448 62.3149 84.1951 62.3149 84.2945C62.3149 85.9857 64.0061 86.5826 64.0061 88.9701V96.1824C64.0061 98.6197 62.3149 99.2165 62.3149 100.908C62.3149 101.007 62.3149 100.957 62.3149 101.007C62.3149 102.848 65.3988 103.345 69.0298 103.345C72.6608 103.345 75.7944 102.848 75.7944 101.007C75.7944 100.957 75.7944 101.007 75.7944 100.908C75.7944 99.2165 74.1033 98.6197 74.1033 96.1824V88.025C74.153 84.9909 75.3468 83.6977 76.839 83.6977C78.5799 83.6977 79.5747 84.9412 79.5747 88.3235V96.1824C79.5747 98.6197 77.8835 99.2165 77.8835 100.908C77.8835 101.007 77.8835 100.957 77.8835 101.007C77.8835 102.848 80.9674 103.345 84.5984 103.345C88.2295 103.345 91.3631 102.848 91.3631 101.007C91.3631 100.957 91.3631 101.007 91.3631 100.908C91.3631 99.2165 89.6719 98.6197 89.6719 96.1824Z" fill="white"/>
<path d="M117.943 78.8231C115.705 78.8231 113.466 79.4698 113.466 81.2107C113.466 81.2604 113.466 81.2107 113.466 81.2604C113.466 82.8521 114.958 83.25 113.914 86.0354L110.631 95.3368L106.801 85.6873C105.856 83.2997 107.249 82.6531 107.249 80.962C107.249 80.8625 107.249 80.962 107.249 80.8625C107.249 79.0718 103.767 78.8729 100.235 78.8231C96.0075 78.8729 93.5703 79.4698 93.5703 81.3599C93.5703 81.4096 93.5703 81.3599 93.5703 81.4594C93.5703 83.6479 95.8583 84.4935 97.0023 86.9308L106.105 105.384C103.518 111.154 101.728 110.259 100.086 108.617C98.5443 107.026 95.9578 106.628 94.4159 108.269C92.3268 110.508 93.819 113.392 95.8086 114.337C98.1464 115.482 101.131 115.283 102.673 114.636C105.707 113.343 108.343 111.254 112.77 100.261C112.82 100.112 118.44 86.2841 118.44 86.2841C119.385 83.9464 121.723 82.8023 121.723 81.1112C121.723 81.0614 121.723 81.1112 121.723 81.0614C121.723 79.4698 119.982 78.8231 117.943 78.8231Z" fill="white"/>
<path d="M147.023 94.2923V88.1245C147.023 81.0117 140.109 78.8231 135.434 78.8231C132.151 78.8231 128.023 79.5692 126.182 82.106C124.441 84.5432 125.337 87.6769 127.575 88.0748C134.141 89.3183 131.803 81.3599 135.285 81.8075C136.578 82.0065 136.876 83.25 136.876 86.9308V88.9701C135.732 88.9701 134.34 88.9701 132.847 88.9701C127.525 88.9701 122.75 90.91 122.999 97.1772C123.148 101.902 127.575 103.693 131.753 103.693C135.185 103.693 137.225 102.002 138.269 100.012C138.319 100.311 138.369 100.609 138.468 100.908C139.115 103.395 141.651 104.141 144.636 103.494C148.217 102.698 149.51 100.908 149.51 99.0673C149.51 99.0176 149.51 99.0673 149.51 98.9678C149.51 97.2767 147.023 96.6798 147.023 94.2923ZM134.738 98.9678C133.544 98.9678 132.449 98.3212 132.449 96.0332C132.449 93.3472 133.594 91.7058 135.882 91.7058C136.23 91.7058 136.578 91.7058 136.876 91.7058V94.541C136.876 97.7741 136.08 98.9678 134.738 98.9678Z" fill="white"/>
<path d="M86.45 116.876H67.21V119.386H86.45V116.876Z" fill="white"/>
<path d="M87.6001 15.6757C89.7901 15.2157 95.2801 13.8757 99.4301 11.0657C102.03 9.30575 103.33 7.45575 103.43 5.41575C103.448 5.17882 103.375 4.94397 103.227 4.75844C103.078 4.57291 102.865 4.45047 102.63 4.41575C101.138 4.27403 99.6373 4.59153 98.3301 5.32575C94.1201 7.32575 90.6801 10.4257 87.3301 13.4757C89.126 9.96816 89.9741 6.05209 89.7901 2.11575C89.789 1.75992 89.7064 1.40908 89.5487 1.09013C89.3909 0.771185 89.1622 0.4926 88.8801 0.275748C88.6061 0.11808 88.2995 0.0252865 87.984 0.00448512C87.6686 -0.0163162 87.3525 0.035428 87.0601 0.155748C85.2301 0.785748 84.3201 2.56575 83.6801 4.22575C81.8392 9.29075 80.3752 14.4849 79.3001 19.7657C79.1827 19.7865 79.0708 19.8309 78.9711 19.8962C78.8714 19.9615 78.786 20.0464 78.7201 20.1457C76.6295 21.2299 74.4351 22.1009 72.1701 22.7457C72.8145 22.1761 73.3886 21.5316 73.8801 20.8257C75.1908 18.82 76.0538 16.5552 76.4101 14.1857C76.9151 11.9749 76.867 9.67359 76.2701 7.48575C76.181 7.05939 75.9604 6.67175 75.6392 6.37751C75.318 6.08327 74.9126 5.89727 74.4801 5.84575C74.2018 5.84514 73.9264 5.90264 73.6715 6.01457C73.4167 6.12649 73.188 6.29038 73.0001 6.49575C70.2801 8.97575 69.0801 12.5857 68.3501 15.4957C68.1601 16.2057 67.9901 16.9257 67.8301 17.6457C67.3886 19.8689 66.7184 22.0405 65.8301 24.1257C61.5784 24.6957 57.2887 24.9331 53.0001 24.8357C52.8719 24.8245 52.7428 24.8404 52.621 24.8822C52.4993 24.924 52.3877 24.9909 52.2935 25.0786C52.1992 25.1662 52.1244 25.2727 52.0739 25.391C52.0234 25.5094 51.9982 25.6371 52.0001 25.7657C51.9988 25.8892 52.0218 26.0117 52.0678 26.1262C52.1138 26.2408 52.182 26.3452 52.2683 26.4334C52.3547 26.5216 52.4576 26.5919 52.5711 26.6404C52.6847 26.6888 52.8067 26.7144 52.9301 26.7157H54.4301C58.4442 26.7528 62.4555 26.4887 66.4301 25.9257V25.9257C67.2301 25.7957 68.0401 25.6557 68.8501 25.4957L70.0201 26.7357C73.6001 30.5557 77.3101 34.5057 81.9001 37.2757C82.2509 37.5102 82.6587 37.645 83.0801 37.6657C83.3634 37.6683 83.6414 37.5884 83.8801 37.4357C84.1874 37.2499 84.4288 36.9725 84.5705 36.6426C84.7122 36.3126 84.747 35.9465 84.6701 35.5957C84.3241 32.8031 82.9125 30.2522 80.7301 28.4757C78.6688 26.81 76.3701 25.4618 73.9101 24.4757L73.4601 24.2957C75.5889 23.6362 77.654 22.7861 79.6301 21.7557C82.8961 23.1938 86.3348 24.2022 89.8601 24.7557C91.5078 25.0804 93.181 25.2577 94.8601 25.2857C96.6322 25.3215 98.3936 25.0019 100.04 24.3457C100.193 24.2745 100.326 24.1655 100.426 24.0291C100.525 23.8927 100.589 23.7333 100.61 23.5657C100.62 23.398 100.588 23.2303 100.517 23.0782C100.445 22.9262 100.336 22.7946 100.2 22.6957C95.369 19.4594 89.4914 18.1731 83.7501 19.0957C85.1407 18.0825 86.43 16.9372 87.6001 15.6757ZM99.1001 7.07575C99.7974 6.71164 100.546 6.45539 101.32 6.31575C100.678 7.66629 99.6287 8.78181 98.3201 9.50575C95.9754 11.0033 93.4254 12.152 90.7501 12.9157C93.2485 10.5905 96.0589 8.6249 99.1001 7.07575V7.07575ZM85.4001 4.91575C85.8901 3.65575 86.5401 2.31575 87.6401 1.91575C87.7087 1.89816 87.7756 1.87474 87.8401 1.84575C87.8824 1.98573 87.9092 2.12992 87.9201 2.27575C88.3901 7.17575 85.7901 14.0857 81.9901 18.0857C81.8301 18.2057 81.6701 18.3257 81.5001 18.4357C82.4773 13.8422 83.7806 9.32405 85.4001 4.91575V4.91575ZM69.6801 18.0457C69.8401 17.3457 70.0101 16.6357 70.1901 15.9357C70.8601 13.3157 71.9301 10.0257 74.2801 7.93575L74.3801 7.85575C74.4313 7.94036 74.4716 8.03107 74.5001 8.12575C75.019 10.0107 75.0465 11.9971 74.5801 13.8957C74.2703 16 73.5096 18.0126 72.3501 19.7957C71.4198 21.214 70.0334 22.2723 68.4201 22.7957C68.9401 21.1757 69.3101 19.5957 69.6801 18.0457ZM79.4501 29.9257C81.1867 31.3326 82.3525 33.3229 82.7301 35.5257C78.5401 32.9457 75.0401 29.2457 71.6601 25.6457C72.1401 25.8157 72.6601 26.0157 73.1101 26.2357C75.4022 27.1291 77.5412 28.374 79.4501 29.9257ZM97.3701 23.2457C94.966 23.584 92.5208 23.4892 90.1501 22.9657C87.7734 22.5583 85.4327 21.9632 83.1501 21.1857C87.986 20.2181 93.0076 20.9455 97.3701 23.2457Z" fill="white"/>
<path d="M28.87 52.2858H8.19001V54.7958H28.87V52.2858Z" fill="white"/>
<path d="M142.84 52.2858H122.16V54.7958H142.84V52.2858Z" fill="white"/>
<path d="M45.8242 57.2727C45.794 57.1822 45.794 57.0767 45.7789 56.9862C45.7186 56.6998 45.598 56.5943 45.3116 56.5792C45.0101 56.549 44.7237 56.6244 44.4975 56.8355C44.3769 56.941 44.2563 57.0616 44.1357 57.1671C43.985 57.2877 43.8191 57.4083 43.6684 57.5139C43.5779 57.5892 43.3819 57.5742 43.3066 57.4988C43.2613 57.4536 43.2161 57.4083 43.1709 57.348C42.794 56.9108 42.6432 56.3832 42.5377 55.8405C42.5076 55.7048 42.6282 55.5239 42.794 55.4636C43.0955 55.343 43.397 55.2224 43.6985 55.1018C44.0302 54.951 44.3166 54.74 44.5428 54.4535C44.7237 54.2123 44.8292 53.9108 44.8895 53.6093C44.9347 53.4736 44.9649 53.3229 44.9649 53.1721C44.9799 52.9761 44.995 52.9309 44.995 52.7349C44.995 52.539 44.9498 52.1771 44.8292 52.0113C44.6935 51.8455 44.4825 51.74 44.3317 51.5892C44.1056 51.3631 43.8191 51.3028 43.5327 51.2877C43.0503 51.2726 42.6131 51.3932 42.2061 51.6193C41.8895 51.8003 41.6633 52.0565 41.5126 52.4033C41.392 52.7199 41.3769 53.0515 41.2563 53.353C41.1809 53.5641 41.1206 53.7902 41.0754 54.0013C41.0302 54.2425 41.0151 54.4686 41 54.6948C40.9699 55.5088 41.1809 56.3078 41.4824 57.0616C41.6935 57.6043 42.0402 58.0264 42.4322 58.4184C42.6583 58.6445 42.9448 58.8254 43.2312 58.9611C43.5327 59.1119 43.8794 59.1571 44.196 59.0817C44.5126 59.0063 44.8292 58.9159 45.1156 58.7501C45.4473 58.5541 45.6734 58.2978 45.794 57.936C45.8543 57.7249 45.8995 57.4988 45.8242 57.2727ZM42.5679 53.5641C42.598 53.1571 42.8543 52.9611 43.0955 52.6596C43.201 52.539 43.4121 52.4787 43.5478 52.554C43.593 52.5842 43.6684 52.6596 43.6985 52.7651C43.7438 53.0817 43.4272 53.745 42.99 54.0164C42.8694 54.0767 42.7337 54.0616 42.6432 53.9259C42.6131 53.8807 42.5377 53.8656 42.5679 53.5641Z" fill="white"/>
<path d="M57.1372 57.348C57.0316 56.9561 56.9864 56.3078 56.8658 55.9309C56.7603 55.6144 56.7301 55.2676 56.6698 54.936C56.6397 54.8003 56.6246 54.6797 56.5944 54.5591C56.4286 53.7751 56.0366 53.338 55.4939 53.3229C55.3432 53.3229 55.2075 53.338 55.0567 53.338C54.8758 53.353 54.7251 53.4736 54.6045 53.6847C54.4085 54.0616 54.2276 54.4686 53.9864 54.7701C53.9562 54.8003 53.911 54.8304 53.911 54.8154C53.8658 54.7701 53.8055 54.7098 53.8055 54.6495C53.7602 53.9108 53.5793 53.2174 53.4135 52.5088C53.308 52.0716 53.0818 51.8455 52.7653 51.7701C52.2527 51.6344 51.8457 51.8756 51.4838 52.3731C51.4688 52.4033 51.4386 52.4334 51.4235 52.4636C51.0919 53.1269 50.6848 53.6998 50.4587 54.4686C50.3532 54.8455 50.0517 55.4636 50.0064 54.7249C49.9763 54.4083 50.0064 54.0767 49.9914 53.7601C49.9612 53.4133 49.8406 52.8555 49.509 52.6897C49.2074 52.554 48.9361 52.9008 48.7853 53.142C48.5893 53.4284 48.529 53.7601 48.6195 54.1068C48.6497 54.2274 48.6496 54.3782 48.6346 54.4837C48.5592 54.7852 48.5743 55.0867 48.5893 55.3882C48.6044 55.5993 48.6949 55.8103 48.6949 56.0214C48.71 56.7299 48.8909 57.3782 49.0416 58.0415C49.0868 58.2978 49.2074 58.4938 49.328 58.6747C49.4487 58.8104 49.5693 58.931 49.6899 59.0516C49.8708 59.2325 50.0667 59.2476 50.2627 59.1119C50.6547 58.8254 50.8808 58.3279 51.0165 57.74C51.107 57.333 51.1673 56.8958 51.2728 56.5038C51.3783 56.0968 51.5592 55.735 51.5743 55.2827C51.5743 55.1922 51.6195 55.1169 51.6497 55.0415C51.8306 54.6495 52.0115 54.2726 52.2075 53.8957C52.2376 53.8354 52.313 53.8053 52.3582 53.8204C52.4035 53.8354 52.4638 53.9108 52.4939 53.9862C52.6597 54.348 52.6145 54.936 52.6597 55.343C52.72 55.8706 52.7653 56.4134 52.7803 56.941C52.7954 57.2124 52.8859 57.4385 53.0215 57.6194C53.0818 57.7099 53.1422 57.7852 53.2175 57.8757C53.4738 58.2224 53.8356 58.2073 54.0768 57.8606C54.4537 57.348 54.8306 56.8053 55.0266 56.1872C55.0417 56.1269 55.313 55.4335 55.4638 55.6294C55.6145 55.8556 55.6598 56.142 55.7201 56.4435C55.8859 57.2124 55.901 57.9812 56.2929 58.5089C56.3985 58.6295 56.5643 58.6596 56.7 58.539C56.8055 58.4636 56.9261 58.3732 56.9713 58.2073C57.0467 57.9661 57.1522 57.74 57.1673 57.4686C57.1522 57.4234 57.1522 57.3933 57.1372 57.348Z" fill="white"/>
<path d="M65.4732 52.7048C65.3526 51.9661 65.0812 51.7701 64.4933 51.6646C64.237 51.6193 63.9807 51.6495 63.7546 51.8455C63.5888 51.9812 63.4079 52.0716 63.2873 52.2374C62.8953 52.6897 62.5335 53.1571 62.2772 53.7148C62.1867 53.9108 62.1264 54.0767 62.0812 54.2877C62.0511 54.4234 62.0511 54.4837 61.9455 54.8003C61.8702 54.0465 61.8249 53.2927 61.84 52.539C61.84 52.4033 61.8852 52.2374 61.8702 52.1168C61.7948 51.7249 61.8249 51.559 61.6591 51.3781C61.644 51.348 61.6139 51.3329 61.5837 51.3178C61.4631 51.2575 61.3425 51.2274 61.2068 51.3178C61.0712 51.4083 60.9506 51.5289 60.8601 51.6947C60.7395 51.951 60.634 52.2224 60.5737 52.5088C60.438 53.2324 60.4229 53.941 60.4531 54.6948C60.4531 54.8757 60.438 55.0566 60.4078 55.2375C60.3325 55.5691 60.4681 55.9008 60.4681 56.2325C60.4531 56.745 60.5134 57.2576 60.3777 57.7702C60.3475 57.9058 60.3626 58.0566 60.3777 58.2073C60.3928 58.7199 60.4229 59.2476 60.438 59.7601C60.4832 60.4536 60.3928 60.9963 60.5737 61.6295C60.634 61.8405 60.7546 62.0667 60.8752 62.2325C61.0259 62.4436 61.4631 62.5792 61.7043 62.5189C61.9606 62.4737 61.8852 62.2476 61.9455 61.9159C62.0058 61.4787 62.0511 61.0415 62.1415 60.6043C62.232 60.2124 62.247 59.8053 62.2923 59.4134C62.3526 58.9762 62.428 58.539 62.4129 58.0867C62.4129 58.0264 62.428 57.9511 62.443 57.8757C62.5335 57.3028 62.639 56.7299 62.7445 56.1571C62.7445 56.1118 62.7747 56.0817 62.8048 56.0666C62.8199 56.0666 62.9104 56.1269 62.9254 56.1571C63.1214 56.4284 63.3626 56.5943 63.634 56.7299C63.9054 56.8656 64.1315 56.8355 64.3878 56.6998C64.7194 56.5038 64.9305 56.2325 65.0963 55.8405C65.2923 55.4033 65.3677 54.936 65.4431 54.4686C65.5335 53.8807 65.5486 53.2927 65.4732 52.7048ZM64.3727 53.4133C64.3727 53.7902 64.2521 54.137 64.1616 54.4686C64.1013 54.6797 63.9657 54.8606 63.8601 55.0264C63.6943 55.3279 63.438 55.5239 62.9405 55.6144C62.9254 55.6294 62.8048 55.5691 62.8651 55.3581C63.0762 54.4686 63.4531 53.8656 63.9958 53.1872C64.0561 53.1118 64.1315 53.0364 64.237 53.0515C64.3124 53.0666 64.3727 53.2626 64.3727 53.4133Z" fill="white"/>
<path d="M69.9533 51.348C69.878 51.3781 69.8177 51.4535 69.7423 51.4535C68.8679 51.6193 68.6116 53.0515 68.5815 53.7902C68.5664 54.5591 68.5664 55.3128 68.5664 56.0817C68.5664 56.4134 68.7021 56.745 68.8377 57.0315C68.9885 57.348 69.1694 57.8455 69.3955 58.1018C69.8177 58.539 70.2096 58.9913 70.9031 59.0063C71.2348 59.0063 71.6569 59.0666 71.9885 58.931C72.2147 58.8405 72.3654 58.6295 72.5312 58.4636C72.7122 58.2676 72.9081 58.0717 73.0137 57.8305C73.2398 57.333 73.4207 56.6998 73.3755 56.1571C73.3453 55.6596 73.3755 55.1621 73.3604 54.6646C73.3453 54.4083 73.3302 54.1671 73.285 53.9259C73.2247 53.6545 73.1343 53.3832 73.1192 53.0967C73.1041 52.8706 73.1041 52.6445 73.0438 52.4334C72.9986 52.2525 72.9232 52.0716 72.8629 51.8907C72.7725 51.6646 72.7423 51.5138 72.5312 51.3631C72.3503 51.2274 72.1544 51.0766 71.9433 50.9711C71.4157 50.6997 70.8579 50.6545 70.3001 50.745C70.1644 50.7751 70.089 50.8656 70.0438 50.9862C69.9986 51.0917 69.9835 51.2274 69.9533 51.348ZM70.7523 57.4536C70.692 57.4837 70.6317 57.4686 70.5564 57.3933C70.2247 57.0315 70.0287 56.5943 70.0287 56.1118C70.0287 55.3581 70.0287 54.6043 70.0739 53.8354C70.1041 53.3078 70.3604 52.8706 70.8126 52.5239C70.9634 52.4184 71.1745 52.4485 71.2498 52.6294C71.2951 52.75 71.3554 52.8555 71.3554 52.9761C71.4006 54.0767 71.5212 55.1772 71.3855 56.2626C71.3403 56.6244 71.2498 56.9259 71.0237 57.1973C70.9483 57.2877 70.8579 57.4234 70.7523 57.4536Z" fill="white"/>
<path d="M81.3641 54.152C81.6204 54.0164 81.7108 53.9108 81.8013 53.6395C81.9219 53.2626 81.9369 52.8555 81.8616 52.4485C81.8465 52.343 81.7862 52.2224 81.741 52.1319C81.4244 51.6344 81.0475 51.544 80.6405 51.6797C80.4445 51.755 80.2485 51.8455 80.0676 51.9359C79.7812 52.0565 79.5701 52.2676 79.359 52.5088C79.1781 52.7199 78.9671 52.8706 78.8163 53.1118C78.6505 53.3681 78.4997 53.6395 78.3339 53.8957C78.3037 53.9259 78.2736 53.941 78.2434 53.941C78.1831 53.9561 78.1379 53.9108 78.1379 53.8053C78.1228 53.2777 78.1379 52.7651 78.1228 52.2374C78.1228 52.1168 78.1228 51.9962 78.1228 51.8756C78.1078 51.6344 77.9118 51.3932 77.7309 51.3932C77.5198 51.3932 77.3088 51.3932 77.1128 51.4234C76.8867 51.4535 76.6907 51.7098 76.6756 52.0113C76.6153 53.4284 76.5248 54.8304 76.6304 56.2325C76.6454 56.5641 76.7057 56.8656 76.7811 57.1822C76.9017 57.6948 77.1279 58.147 77.3389 58.5993C77.4595 58.8104 77.6404 58.946 77.8515 58.9611C77.957 58.9762 78.0625 58.9913 78.1681 58.9762C78.3038 58.9611 78.4394 58.9008 78.5148 58.7501C78.6957 58.3581 78.8917 57.9661 78.9218 57.5139C78.952 56.9561 79.1028 56.4134 79.2083 55.8706C79.344 55.0716 79.6605 54.348 80.1882 53.7902C80.8967 52.9309 80.6857 54.2123 81.3641 54.152Z" fill="white"/>
<path d="M86.794 57.2576C86.7638 57.0465 86.7337 56.8505 86.7186 56.6395C86.7035 55.9159 86.7638 55.1922 86.7186 54.4837C86.7035 54.137 86.6281 53.8053 86.5678 53.4736C86.5528 53.3983 86.5226 53.3078 86.4774 53.2626C86.2965 53.0515 86.1005 52.9008 85.8593 52.8254C85.6784 52.7651 85.4372 52.8857 85.3467 53.0817C85.2563 53.2626 85.1507 53.4435 85.1206 53.6244C85.0603 54.152 85.0301 54.6646 84.9849 55.1922C84.9548 55.5993 84.9698 56.0063 85.0301 56.4134C85.0754 56.7902 85.0754 57.1671 85.211 57.544C85.2864 57.7551 85.3618 57.9661 85.4372 58.1772C85.5578 58.539 85.8141 58.735 86.1457 58.8405C86.3417 58.9159 86.6884 58.6747 86.7337 58.4486C86.7638 58.2827 86.7789 58.132 86.809 57.9209C86.8392 57.6948 86.8241 57.4837 86.794 57.2576ZM85.2563 51.2274C85.4673 51.544 85.7538 51.6193 86.0854 51.5741C86.1909 51.559 86.2965 51.4686 86.3417 51.3631C86.6583 50.7299 86.3417 50.142 85.8894 49.9912C85.7839 49.961 85.6633 49.946 85.5276 49.9309C85.1658 49.9309 84.9698 50.5339 85.0452 50.8354C85.0904 51.0163 85.1809 51.1068 85.2563 51.2274Z" fill="white"/>
<path d="M91.8679 53.5792C91.687 53.1571 91.4307 52.9158 91.0991 52.7651C90.9785 52.7048 90.888 52.7349 90.7976 52.7802C90.6317 52.8706 90.4961 52.9912 90.4056 53.1721C90.2699 53.5038 90.1041 53.8204 90.0438 54.1671C89.893 54.9963 89.7272 55.8254 89.8177 56.6847C89.8327 56.8807 89.878 57.0767 89.9081 57.2727C90.0287 57.8757 90.3302 58.3732 90.6468 58.8405C90.8729 59.1571 91.1895 59.2325 91.5061 59.142C91.8076 59.0516 92.079 58.8857 92.3051 58.6144C92.7122 58.147 92.9835 57.5892 93.2549 57.0315C93.3604 56.8204 93.4509 56.6093 93.5413 56.3983C93.6619 56.142 93.7825 55.9008 93.9182 55.5993C94.0237 55.9762 94.0991 56.2777 94.1896 56.5792C94.2951 56.9561 94.4006 57.333 94.5212 57.7249C94.6267 58.0717 94.7926 58.3732 95.0338 58.6144C95.1393 58.7199 95.275 58.7651 95.4258 58.7199C95.5916 58.6596 95.7273 58.4486 95.7122 58.2676C95.682 58.0264 95.6519 57.7702 95.5916 57.5591C95.4861 57.2576 95.4861 56.9561 95.471 56.6546C95.4408 56.3531 95.3504 56.0817 95.3051 55.7953C95.2448 55.4033 95.2901 54.9963 95.2901 54.6043C95.2901 54.1973 95.2901 53.7751 95.2901 53.353C95.2901 53.0364 95.3051 52.7199 95.4559 52.4184C95.4861 52.358 95.4861 52.2676 95.5011 52.1922C95.5464 51.8003 95.4559 51.4686 95.1695 51.2425C94.8378 50.9862 94.7021 50.9862 94.4006 51.1972C94.2499 51.3028 94.1293 51.4686 93.9936 51.5741C93.8127 51.7249 93.677 51.9058 93.6167 52.1319C93.4509 52.7199 93.3001 53.353 93.0287 53.8656C92.6971 54.4837 92.3654 55.1018 92.079 55.735C91.9885 55.9309 91.8981 56.1118 91.7775 56.2928C91.7473 56.338 91.4609 56.7902 91.3554 56.7149C91.2046 56.6395 91.28 55.9309 91.3403 55.6294C91.4006 55.2978 91.491 54.951 91.5815 54.6194C91.6267 54.4385 91.672 54.2576 91.7323 54.0767C91.7624 53.9862 91.9132 53.6696 91.8679 53.5792Z" fill="white"/>
<path d="M107.294 57.348C107.188 56.9561 107.143 56.3078 107.022 55.9309C106.917 55.6144 106.887 55.2676 106.826 54.936C106.796 54.8003 106.781 54.6797 106.751 54.5591C106.585 53.7751 106.193 53.338 105.651 53.3229C105.5 53.3229 105.364 53.338 105.213 53.338C105.032 53.353 104.882 53.4736 104.761 53.6847C104.565 54.0616 104.384 54.4686 104.143 54.7701C104.113 54.8003 104.068 54.8304 104.068 54.8154C104.022 54.7701 103.962 54.7098 103.962 54.6495C103.917 53.9108 103.736 53.2174 103.57 52.5088C103.465 52.0716 103.239 51.8455 102.922 51.7701C102.409 51.6344 102.002 51.8756 101.641 52.3731C101.625 52.4033 101.595 52.4334 101.58 52.4636C101.249 53.1269 100.842 53.6998 100.615 54.4686C100.51 54.8455 100.208 55.4636 100.163 54.7249C100.133 54.4083 100.163 54.0767 100.148 53.7601C100.118 53.4133 99.9973 52.8555 99.6656 52.6897C99.3641 52.554 99.0927 52.9008 98.942 53.142C98.746 53.4284 98.6857 53.7601 98.7762 54.1068C98.8063 54.2274 98.8063 54.3782 98.7912 54.4837C98.7159 54.7852 98.7309 55.0867 98.746 55.3882C98.7611 55.5993 98.8515 55.8103 98.8515 56.0214C98.8666 56.7299 99.0475 57.3782 99.1983 58.0415C99.2435 58.2978 99.3641 58.4938 99.4847 58.6747C99.6053 58.8104 99.7259 58.931 99.8465 59.0516C100.027 59.2325 100.223 59.2476 100.419 59.1119C100.811 58.8254 101.037 58.3279 101.173 57.74C101.264 57.333 101.324 56.8958 101.429 56.5038C101.535 56.0968 101.716 55.735 101.731 55.2827C101.731 55.1922 101.776 55.1169 101.806 55.0415C101.987 54.6495 102.168 54.2726 102.364 53.8957C102.394 53.8354 102.47 53.8053 102.515 53.8204C102.56 53.8354 102.62 53.9108 102.651 53.9862C102.816 54.348 102.771 54.936 102.816 55.343C102.877 55.8706 102.922 56.4134 102.937 56.941C102.952 57.2124 103.043 57.4385 103.178 57.6194C103.239 57.7099 103.299 57.7852 103.374 57.8757C103.63 58.2224 103.992 58.2073 104.233 57.8606C104.61 57.348 104.987 56.8053 105.183 56.1872C105.198 56.1269 105.47 55.4335 105.62 55.6294C105.771 55.8556 105.816 56.142 105.877 56.4435C106.043 57.2124 106.058 57.9812 106.45 58.5089C106.555 58.6295 106.721 58.6596 106.857 58.539C106.962 58.4636 107.083 58.3732 107.128 58.2073C107.203 57.9661 107.309 57.74 107.324 57.4686C107.309 57.4234 107.309 57.3933 107.294 57.348Z" fill="white"/>
</svg>
